#!OML:ASF X:\für Bonn\!DataBase\2005_08_12_Daniel\c3d\Daniel.ASF
:FULLY-SPECIFIED
:DEGREES
232
root 2.02866 17.3122 14.0415 354.769 -224.866 718.839
lowerback 7.45078 -5.87943 -0.121179
upperback 1.09 -7.85995 -2.39189
thorax -3.34164 -3.89185 -1.58433
lowerneck 7.87804 10.6358 9.03494
upperneck 13.8456 17.3871 -12.0002
head 4.71089 9.03083 -4.61409
rclavicle -1.76918e-014 -5.56597e-015
rhumerus -54.3888 2.31192 -82.4423
rradius 88.1615
rwrist -60.4035
rhand 6.69959 12.1846
rfingers 7.12502
rthumb 31.9897 -15.0234
lclavicle -1.76918e-014 -5.56597e-015
lhumerus -41.636 49.0155 56.7645
lradius 16.3203
lwrist -49.5297
lhand -10.8301 -4.9932
lfingers 7.12502
lthumb 15.1842 24.4297
rfemur -7.46167 -11.8958 6.62873
rtibia 54.5453
rfoot -8.84119 -6.07705
rtoes -8.14366
lfemur -5.37444 -4.02553 -29.4155
ltibia 36.6687
lfoot -28.1896 7.65885
ltoes 5.10592
233
root 2.05298 17.3064 13.9628 354.867 -223.532 718.932
lowerback 7.50913 -5.96088 -0.184168
upperback 1.13073 -7.96976 -2.35285
thorax -3.32113 -3.94426 -1.49506
lowerneck 7.81895 10.5143 8.86664
upperneck 13.8287 17.2189 -12.0106
head 4.68182 8.94334 -4.60109
rclavicle -2.82585e-014 -7.15625e-015
rhumerus -54.1998 1.97309 -82.8817
rradius 86.2434
rwrist -60.3488
rhand 6.63292 12.0043
rfingers 7.12502
rthumb 31.9262 -15.2164
lclavicle -2.82585e-014 -7.15625e-015
lhumerus -41.2896 49.135 56.8276
lradius 16.2767
lwrist -49.65
lhand -10.7347 -5.12455
lfingers 7.12502
lthumb 15.2761 24.2913
rfemur -8.24391 -11.7187 7.1368
rtibia 55.0164
rfoot -8.71686 -4.06132
rtoes -9.1922
lfemur -5.00103 -4.74883 -29.5929
ltibia 36.5102
lfoot -28.1582 7.21328
ltoes 5.02043
234
root 2.07907 17.3043 13.8824 354.947 -222.209 718.985
lowerback 7.5606 -6.0342 -0.262088
upperback 1.15484 -8.071 -2.33057
thorax -3.31376 -3.9924 -1.41543
lowerneck 7.81087 10.3723 8.70749
upperneck 13.8073 17.0246 -12.0051
head 4.63998 8.84677 -4.58981
rclavicle 1.24613e-014 1.19271e-014
rhumerus -54.0268 1.56093 -83.2499
rradius 84.3578
rwrist -60.2534
rhand 6.5482 11.8844
rfingers 7.12502
rthumb 31.8455 -15.3524
lclavicle 1.24613e-014 1.19271e-014
lhumerus -41.0065 49.274 56.8009
lradius 16.2372
lwrist -49.9131
lhand -10.6629 -5.33949
lfingers 7.12502
lthumb 15.3452 24.0711
rfemur -9.04096 -11.4832 7.63505
rtibia 55.3714
rfoot -8.76099 -2.1948
rtoes -10.1668
lfemur -4.59503 -5.47017 -29.7885
ltibia 36.3072
lfoot -28.1441 6.77458
ltoes 4.83481
235
root 2.10759 17.3015 13.8018 355.032 -220.893 719.051
lowerback 7.60594 -6.1073 -0.344552
upperback 1.1881 -8.17156 -2.29963
thorax -3.29121 -4.04013 -1.32597
lowerneck 7.80589 10.227 8.53011
upperneck 13.772 16.8212 -11.9952
head 4.59085 8.74515 -4.57526
rclavicle 3.15136e-014 -1.47101e-014
rhumerus -53.7585 1.09907 -83.5304
rradius 82.4591
rwrist -60.0431
rhand 6.46528 11.7829
rfingers 7.12502
rthumb 31.7666 -15.4696
lclavicle 3.15136e-014 -1.47101e-014
lhumerus -40.6608 49.3696 56.8386
lradius 16.1999
lwrist -50.0979
lhand -10.5871 -5.57424
lfingers 7.12502
lthumb 15.4182 23.8308
rfemur -9.79117 -11.1238 8.21195
rtibia 55.5658
rfoot -9.02868 -0.585251
rtoes -10.3877
lfemur -4.16802 -6.17909 -29.9613
ltibia 36.0825
lfoot -28.0852 6.34881
ltoes 4.69637
236
root 2.13943 17.2985 13.721 355.091 -219.609 719.115
lowerback 7.67369 -6.16444 -0.452765
upperback 1.22524 -8.25258 -2.26054
thorax -3.27129 -4.07761 -1.21435
lowerneck 7.77853 10.0814 8.33006
upperneck 13.7646 16.6166 -11.9623
head 4.55061 8.64158 -4.54791
rclavicle -7.67744e-014 3.97569e-015
rhumerus -53.4872 0.603984 -83.7224
rradius 80.5759
rwrist -59.7212
rhand 6.42199 11.8136
rfingers 7.12502
rthumb 31.7253 -15.4471
lclavicle -7.67744e-014 3.97569e-015
lhumerus -40.3086 49.4662 56.8966
lradius 16.1553
lwrist -50.3341
lhand -10.5629 -5.84571
lfingers 7.12502
lthumb 15.4416 23.5575
rfemur -10.5103 -10.6041 8.85341
rtibia 55.627
rfoot -9.45251 0.755513
rtoes -10.6103
lfemur -3.69417 -6.81013 -30.1048
ltibia 35.8323
lfoot -28.0378 5.87946
ltoes 4.46862
237
root 2.17304 17.297 13.64 355.185 -218.326 719.191
lowerback 7.71209 -6.22715 -0.565239
upperback 1.26169 -8.34098 -2.2118
thorax -3.23349 -4.11906 -1.09328
lowerneck 7.73894 9.9298 8.15148
upperneck 13.765 16.4058 -11.9377
head 4.51687 8.53484 -4.52519
rclavicle -4.36332e-014 1.15295e-014
rhumerus -53.167 0.0892768 -83.8585
rradius 78.6721
rwrist -59.2609
rhand 6.45503 11.9104
rfingers 7.12502
rthumb 31.7568 -15.344
lclavicle -4.36332e-014 1.15295e-014
lhumerus -39.8112 49.3865 57.1545
lradius 16.1267
lwrist -50.2948
lhand -10.5933 -6.04817
lfingers 7.12502
lthumb 15.4122 23.3573
rfemur -11.2499 -10.0167 9.5426
rtibia 55.5851
rfoot -9.93976 1.8189
rtoes -10.9872
lfemur -3.23645 -7.45461 -30.2237
ltibia 35.5764
lfoot -27.9905 5.41677
ltoes 4.19916
